<mxfile host="app.diagrams.net" modified="2022-10-27T10:22:52.157Z" agent="5.0 (Windows NT 10.0; Win64; x64) AppleWebKit/537.36 (KHTML, like Gecko) Chrome/106.0.0.0 Safari/537.36" etag="6MR8PKgEQYo9xUgtUJpR" version="20.5.1" type="github">
  <diagram id="C5RBs43oDa-KdzZeNtuy" name="Page-1">
    <mxGraphModel dx="1038" dy="547" grid="1" gridSize="10" guides="1" tooltips="1" connect="1" arrows="1" fold="1" page="1" pageScale="1" pageWidth="827" pageHeight="1169" math="0" shadow="0">
      <root>
        <mxCell id="WIyWlLk6GJQsqaUBKTNV-0" />
        <mxCell id="WIyWlLk6GJQsqaUBKTNV-1" parent="WIyWlLk6GJQsqaUBKTNV-0" />
        <mxCell id="kYkdzYrgFf4KMOdY5dag-0" value="" style="rounded=0;whiteSpace=wrap;html=1;" vertex="1" parent="WIyWlLk6GJQsqaUBKTNV-1">
          <mxGeometry x="190" y="60" width="500" height="1060" as="geometry" />
        </mxCell>
        <mxCell id="kYkdzYrgFf4KMOdY5dag-3" value="&lt;b&gt;&lt;font color=&quot;#f19c99&quot;&gt;Administrator&lt;/font&gt;&lt;/b&gt;" style="shape=umlActor;verticalLabelPosition=bottom;verticalAlign=top;html=1;outlineConnect=0;fillColor=#f8cecc;strokeColor=#b85450;strokeWidth=5;" vertex="1" parent="WIyWlLk6GJQsqaUBKTNV-1">
          <mxGeometry x="100" y="140" width="30" height="60" as="geometry" />
        </mxCell>
        <mxCell id="kYkdzYrgFf4KMOdY5dag-4" value="&lt;b&gt;&lt;font color=&quot;#009900&quot;&gt;Patient&lt;/font&gt;&lt;/b&gt;" style="shape=umlActor;verticalLabelPosition=bottom;verticalAlign=top;html=1;outlineConnect=0;fillColor=#f8cecc;strokeColor=#009900;strokeWidth=5;" vertex="1" parent="WIyWlLk6GJQsqaUBKTNV-1">
          <mxGeometry x="90" y="310" width="30" height="60" as="geometry" />
        </mxCell>
        <mxCell id="kYkdzYrgFf4KMOdY5dag-6" value="&lt;b&gt;&lt;font color=&quot;#009900&quot;&gt;Patient&lt;/font&gt;&lt;/b&gt;" style="shape=umlActor;verticalLabelPosition=bottom;verticalAlign=top;html=1;outlineConnect=0;fillColor=#f8cecc;strokeColor=#009900;strokeWidth=5;" vertex="1" parent="WIyWlLk6GJQsqaUBKTNV-1">
          <mxGeometry x="90" y="480" width="30" height="60" as="geometry" />
        </mxCell>
      </root>
    </mxGraphModel>
  </diagram>
</mxfile>
